o cube

v 0.0 0.0 0.0
v 0.0 0.0 1.0
v 0.0 1.0 0.0
v 0.0 1.0 1.0
v 1.0 0.0 0.0
v 1.0 0.0 1.0
v 1.0 1.0 0.0
v 1.0 1.0 1.0

vn 0.0 0.0 1.0
vn 0.0 0.0 -1.32
vn 0.0 1.0 0.0
vn 0.0 -1.0 0.0
vn 1.0 0.0 0.0
vn -1.26 0.0 0.0

f 1//2 7//2 5//2
f 1//2 3//2 7//2
f 1//6 4//6 3//6
f 1//6 2//6 4//6
f 3//3 8//3 7//3
f 3//3 4//3 8//3
f 5//5 7//5 8//5
f 5//5 8//5 6//5
f 1//4 5//4 6//4
f 1//4 6//4 2//4
f 2//1 6//1 8//1
f 2//1 8//1 4//1

o mesh2

v 0.0 0.0 0.0
v 0.0 0.0 1.0
v 0.0 1.0 0.0
v 0.0 1.0 1.0
v 1.0 0.0 0.0
v 1.0 0.0 1.0
v 1.0 1.0 0.0
v 1.0 1.0 1.0

vn 0.0 0.0 1.0
vn 0.0 0.0 -1.36
vn 0.0 1.0 0.0
vn 0.0 -1.0 0.0
vn 1.0 0.0 0.0
vn -1.52 0.0 0.0

f 9//8 15//8 13//8
f 9//8 11//8 15//8
f 9//12 12//12 11//12
f 9//12 10//12 12//12
f 11//9 16//9 15//9
f 11//9 12//9 16//9
f 13//11 15//11 16//11
f 13//11 16//11 14//11
f 9//10 13//10 14//10
f 9//10 14//10 10//10
f 10//7 14//7 16//7
f 10//7 16//7 12//7
